<?xml version="1.0" encoding="utf-8"?><svg xmlns="http://www.w3.org/2000/svg" xmlns:xlink="http://www.w3.org/1999/xlink" width="1920" height="1786" preserveAspectRatio="xMidYMid" viewBox="0 0 1920 1786" style="z-index:1;margin-right:-2px;display:block;background-repeat-y:initial;background-repeat-x:initial;background-color:rgb(255, 255, 255);animation-play-state:paused" ><g transform="translate(960,893) scale(-1,-1) translate(-960,-893)" style="transform:matrix(-1, 0, 0, -1, 1920, 1786);animation-play-state:paused" ><linearGradient id="lg-0.846071892484189" x1="0" x2="1" y1="0" y2="0" style="animation-play-state:paused" ><stop stop-color="#db3b5b" offset="0" style="animation-play-state:paused" ></stop>

  
<stop stop-color="#db3bd6" offset="1" style="animation-play-state:paused" ></stop></linearGradient>
<path d="M 0 0 L 0 843.795 Q 192 689.046 384 656.874 T 768 493.86 T 1152 306.925 T 1536 339.205 T 1920 77.8743 L 1920 0 Z" fill="url(#lg-0.846071892484189)" opacity="0.4" style="opacity:0.4;animation-play-state:paused" ></path>
<path d="M 0 0 L 0 761.593 Q 192 630.665 384 595.987 T 768 472.69 T 1152 394.626 T 1536 353.69 T 1920 239.878 L 1920 0 Z" fill="url(#lg-0.846071892484189)" opacity="0.4" style="opacity:0.4;animation-play-state:paused" ></path>
<path d="M 0 0 L 0 727.871 Q 192 676.976 384 646.839 T 768 573.498 T 1152 357.617 T 1536 218.88 T 1920 179.719 L 1920 0 Z" fill="url(#lg-0.846071892484189)" opacity="0.4" style="opacity:0.4;animation-play-state:paused" ></path>
<path d="M 0 0 L 0 755.526 Q 192 750.7 384 712.794 T 768 624.161 T 1152 346.099 T 1536 325.844 T 1920 233.72 L 1920 0 Z" fill="url(#lg-0.846071892484189)" opacity="0.4" style="opacity:0.4;animation-play-state:paused" ></path>
<path d="M 0 0 L 0 847.137 Q 192 761.612 384 741.173 T 768 491.215 T 1152 390.951 T 1536 341.134 T 1920 140.238 L 1920 0 Z" fill="url(#lg-0.846071892484189)" opacity="0.4" style="opacity:0.4;animation-play-state:paused" ></path>
<path d="M 0 0 L 0 783.807 Q 192 697.599 384 656.079 T 768 520.114 T 1152 430.535 T 1536 303.475 T 1920 183.794 L 1920 0 Z" fill="url(#lg-0.846071892484189)" opacity="0.4" style="opacity:0.4;animation-play-state:paused" ></path>
<path d="M 0 0 L 0 871.119 Q 192 715.707 384 694.506 T 768 634.139 T 1152 466.678 T 1536 233.081 T 1920 214.753 L 1920 0 Z" fill="url(#lg-0.846071892484189)" opacity="0.4" style="opacity:0.4;animation-play-state:paused" ></path>
<path d="M 0 0 L 0 760.008 Q 192 665.855 384 618.577 T 768 635.226 T 1152 454.739 T 1536 349.852 T 1920 101.51 L 1920 0 Z" fill="url(#lg-0.846071892484189)" opacity="0.4" style="opacity:0.4;animation-play-state:paused" ></path>
<path d="M 0 0 L 0 826.388 Q 192 766.118 384 736.926 T 768 489.17 T 1152 421.104 T 1536 243.845 T 1920 156.85 L 1920 0 Z" fill="url(#lg-0.846071892484189)" opacity="0.4" style="opacity:0.4;animation-play-state:paused" ></path>
<path d="M 0 0 L 0 771.919 Q 192 730.627 384 702.219 T 768 518.801 T 1152 430.67 T 1536 208.85 T 1920 237.558 L 1920 0 Z" fill="url(#lg-0.846071892484189)" opacity="0.4" style="opacity:0.4;animation-play-state:paused" ></path></g></svg>