<?xml version="1.0" encoding="utf-8"?><svg xmlns="http://www.w3.org/2000/svg" xmlns:xlink="http://www.w3.org/1999/xlink" width="1920" height="929" preserveAspectRatio="xMidYMid" viewBox="0 0 1920 929" style="z-index:1;margin-right:-2px;display:block;background-repeat-y:initial;background-repeat-x:initial;background-color:rgb(255, 255, 255);animation-play-state:paused" ><g transform="translate(960,464.5) scale(1,1) translate(-960,-464.5)" style="transform:matrix(1, 0, 0, 1, 0, 0);animation-play-state:paused" ><linearGradient id="lg-0.6021099745255325" x1="0" x2="1" y1="0" y2="0" style="animation-play-state:paused" ><stop stop-color="#db3b5b" offset="0" style="animation-play-state:paused" ></stop>

  
<stop stop-color="#db3bd6" offset="1" style="animation-play-state:paused" ></stop></linearGradient>
<path d="M 0 0 L 0 861.878 Q 192 717.807 384 684.163 T 768 693.566 T 1152 537.947 T 1536 534.541 T 1920 326.554 L 1920 0 Z" fill="url(#lg-0.6021099745255325)" opacity="0.4" style="opacity:0.4;animation-play-state:paused" ></path>
<path d="M 0 0 L 0 897.752 Q 192 761.651 384 723.083 T 768 695.85 T 1152 606.829 T 1536 517.718 T 1920 358.032 L 1920 0 Z" fill="url(#lg-0.6021099745255325)" opacity="0.4" style="opacity:0.4;animation-play-state:paused" ></path>
<path d="M 0 0 L 0 849.911 Q 192 740.337 384 716.721 T 768 700.622 T 1152 551.965 T 1536 421.251 T 1920 369.534 L 1920 0 Z" fill="url(#lg-0.6021099745255325)" opacity="0.4" style="opacity:0.4;animation-play-state:paused" ></path>
<path d="M 0 0 L 0 779.645 Q 192 810.166 384 776.41 T 768 680.642 T 1152 584.003 T 1536 437.733 T 1920 468.826 L 1920 0 Z" fill="url(#lg-0.6021099745255325)" opacity="0.4" style="opacity:0.4;animation-play-state:paused" ></path>
<path d="M 0 0 L 0 794.823 Q 192 722.776 384 699.192 T 768 613.642 T 1152 603.246 T 1536 487.137 T 1920 352.477 L 1920 0 Z" fill="url(#lg-0.6021099745255325)" opacity="0.4" style="opacity:0.4;animation-play-state:paused" ></path></g></svg>