<?xml version="1.0" encoding="utf-8"?><svg xmlns="http://www.w3.org/2000/svg" xmlns:xlink="http://www.w3.org/1999/xlink" width="1920" height="872" preserveAspectRatio="xMidYMid" viewBox="0 0 1920 872" style="z-index:1;margin-right:-2px;display:block;background-repeat-y:initial;background-repeat-x:initial;background-color:rgb(241, 242, 243);animation-play-state:paused" ><g transform="translate(960,436) scale(1,1) translate(-960,-436)" style="transform:matrix(1, 0, 0, 1, 0, 0);animation-play-state:paused" ><linearGradient id="lg-0.39252959383045694" x1="0" x2="1" y1="0" y2="0" style="animation-play-state:paused" ><stop stop-color="#d8375d" offset="0" style="animation-play-state:paused" ></stop>

  
<stop stop-color="#f730b5" offset="1" style="animation-play-state:paused" ></stop></linearGradient>
<path d="M 0 0 L 0 869.974 Q 192 793.924 384 773.478 T 768 556.735 T 1152 563.167 T 1536 369.041 T 1920 339.414 L 1920 0 Z" fill="url(#lg-0.39252959383045694)" opacity="0.4" style="opacity:0.4;animation-play-state:paused" ></path>
<path d="M 0 0 L 0 850.029 Q 192 703.832 384 678.99 T 768 582.111 T 1152 487.088 T 1536 499.371 T 1920 375.232 L 1920 0 Z" fill="url(#lg-0.39252959383045694)" opacity="0.4" style="opacity:0.4;animation-play-state:paused" ></path>
<path d="M 0 0 L 0 801.411 Q 192 800.676 384 753.072 T 768 586.466 T 1152 551.96 T 1536 533.238 T 1920 381.951 L 1920 0 Z" fill="url(#lg-0.39252959383045694)" opacity="0.4" style="opacity:0.4;animation-play-state:paused" ></path>
<path d="M 0 0 L 0 786.459 Q 192 752.575 384 733.279 T 768 626.785 T 1152 490.104 T 1536 447.31 T 1920 337.984 L 1920 0 Z" fill="url(#lg-0.39252959383045694)" opacity="0.4" style="opacity:0.4;animation-play-state:paused" ></path>
<path d="M 0 0 L 0 782.549 Q 192 731.799 384 696.712 T 768 606.684 T 1152 606.136 T 1536 433.759 T 1920 333.215 L 1920 0 Z" fill="url(#lg-0.39252959383045694)" opacity="0.4" style="opacity:0.4;animation-play-state:paused" ></path></g></svg>