<?xml version="1.0" encoding="utf-8"?><svg xmlns="http://www.w3.org/2000/svg" xmlns:xlink="http://www.w3.org/1999/xlink" width="3000" height="2000" preserveAspectRatio="xMidYMid" viewBox="0 0 3000 2000" style="z-index:1;margin-right:-2px;display:block;background-repeat-y:initial;background-repeat-x:initial;background-color:rgb(255, 255, 255);animation-play-state:paused" ><g transform="translate(1500,1000) scale(-1,-1) translate(-1500,-1000)" style="transform:matrix(-1, 0, 0, -1, 3000, 2000);animation-play-state:paused" ><linearGradient id="lg-0.7710041152348208" x1="0" x2="1" y1="0" y2="0" style="animation-play-state:paused" ><stop stop-color="#db3b5b" offset="0" style="animation-play-state:paused" ></stop>

  
<stop stop-color="#db3b5b" offset="1" style="animation-play-state:paused" ></stop></linearGradient>
<path d="M 0 0 L 0 1827.19 Q 750 498.923 1500 482.273 T 3000 -824.518 L 3000 0 Z" fill="url(#lg-0.7710041152348208)" opacity="0.4" style="opacity:0.4;animation-play-state:paused" ></path>
<path d="M 0 0 L 0 1781.96 Q 750 597.134 1500 561.163 T 3000 -1085.97 L 3000 0 Z" fill="url(#lg-0.7710041152348208)" opacity="0.4" style="opacity:0.4;animation-play-state:paused" ></path>
<path d="M 0 0 L 0 1666.16 Q 750 409.157 1500 387.783 T 3000 -652.935 L 3000 0 Z" fill="url(#lg-0.7710041152348208)" opacity="0.4" style="opacity:0.4;animation-play-state:paused" ></path>
<path d="M 0 0 L 0 1625.01 Q 750 634.191 1500 617.749 T 3000 -764.565 L 3000 0 Z" fill="url(#lg-0.7710041152348208)" opacity="0.4" style="opacity:0.4;animation-play-state:paused" ></path>
<path d="M 0 0 L 0 1745.43 Q 750 485.467 1500 463.084 T 3000 -1128.39 L 3000 0 Z" fill="url(#lg-0.7710041152348208)" opacity="0.4" style="opacity:0.4;animation-play-state:paused" ></path></g></svg>